<svg width="1200" height="630" viewBox="0 0 1200 630" fill="none" xmlns="http://www.w3.org/2000/svg">
  <!-- Background -->
  <rect width="1200" height="630" fill="#002145"/>
  
  <!-- UBC Gold accent -->
  <rect x="0" y="0" width="1200" height="8" fill="#F5C400"/>
  <rect x="0" y="622" width="1200" height="8" fill="#F5C400"/>
  
  <!-- Calendar icon -->
  <rect x="100" y="200" width="200" height="230" rx="16" fill="#F5C400"/>
  <rect x="120" y="240" width="160" height="160" rx="8" fill="#002145"/>
  <rect x="140" y="260" width="30" height="4" fill="#F5C400"/>
  <rect x="140" y="270" width="50" height="4" fill="#F5C400"/>
  <rect x="140" y="280" width="40" height="4" fill="#F5C400"/>
  <rect x="200" y="260" width="30" height="4" fill="#F5C400"/>
  <rect x="200" y="270" width="30" height="4" fill="#F5C400"/>
  <rect x="200" y="280" width="30" height="4" fill="#F5C400"/>
  <rect x="140" y="300" width="90" height="4" fill="#F5C400"/>
  <rect x="140" y="310" width="60" height="4" fill="#F5C400"/>
  <rect x="140" y="320" width="80" height="4" fill="#F5C400"/>
  
  <!-- Title -->
  <text x="380" y="280" font-family="Inter, sans-serif" font-size="64" font-weight="700" fill="#FFFFFF">UBC Exam Scheduler</text>
  
  <!-- Subtitle -->
  <text x="380" y="330" font-family="Inter, sans-serif" font-size="32" font-weight="400" fill="#F5C400">Schedule and manage your UBC exams with ease</text>
  
  <!-- Features -->
  <text x="380" y="380" font-family="Inter, sans-serif" font-size="24" font-weight="400" fill="#FFFFFF">• Search exam schedules by course</text>
  <text x="380" y="410" font-family="Inter, sans-serif" font-size="24" font-weight="400" fill="#FFFFFF">• Build your personal exam schedule</text>
  <text x="380" y="440" font-family="Inter, sans-serif" font-size="24" font-weight="400" fill="#FFFFFF">• Download calendar files (.ics)</text>
</svg>
